<svg width="135" height="18" viewBox="0 0 135 18" fill="none" xmlns="http://www.w3.org/2000/svg">
    <path d="M0 8.2V5.6H2.5V2.4L7.4 -9.53674e-07H17.4V4.4L12.4 3.9V2.6H8.7L7.5 3.2V5.6H13.4V8.2H7.5V14H2.5V8.2H0ZM18.4016 14V8.7L31.3016 7.1V6H23.4016V6.9L18.4016 7.4V3.4H36.3016V14H32.7216L31.7016 13L30.7016 14H18.4016ZM23.4016 11.4H31.3016V9.52L23.4016 10.5V11.4ZM39.9055 14V10L44.9055 10.5V11.4H52.6055V10.5L39.9055 8.7V3.4H57.6055V7.4L52.6055 6.9V6H44.9055V6.8L57.6055 8.6V14H39.9055ZM59.4141 6V3.4H61.9141V-9.53674e-07H66.9141V3.4H71.8141V6H66.9141V10.8L68.1141 11.4H75.8141V14H66.8141L61.9141 11.6V6H59.4141ZM78.0109 14V3.4H96.1109V14H78.0109ZM83.0109 11.4H91.1109V6H83.0109V11.4ZM97.9102 6V3.4H100.41V-9.53674e-07H105.41V3.4H110.31V6H105.41V10.8L106.61 11.4H114.31V14H105.31L100.41 11.6V6H97.9102ZM113.887 6V3.4H119.987L120.987 4.4L121.987 3.4H134.287V12.8L121.387 14.4V17.4H116.387V6H113.887ZM121.387 11.9L129.287 10.9V6H121.387V11.9Z" fill="black"/>
</svg>
